<?xml version="1.0" encoding="utf-8"?>
<!-- Generator: Adobe Illustrator 19.0.0, SVG Export Plug-In . SVG Version: 6.00 Build 0)  -->
<svg version="1.1" id="Layer_1" xmlns="http://www.w3.org/2000/svg" xmlns:xlink="http://www.w3.org/1999/xlink" x="0px" y="0px"
	 viewBox="0 0 1226 211" style="enable-background:new 0 0 1226 211;" xml:space="preserve">
<style type="text/css">
	.st0{fill:#2A2724;}
	.st1{fill:#CD1421;}
</style>
<polygon class="st0" points="280.8,181.7 277.6,181.9 275.4,181.7 273.7,181.5 272.6,181.2 271.5,180.8 270.5,180.3 269.9,179.8 
	269.3,179.4 268.7,178.8 268.2,178.2 267.5,177.2 266.9,176 266.4,174.7 265.9,172.6 265.4,169.5 265.2,165.1 265.2,162.7 
	265.2,160.2 265.2,157.7 265.2,155.2 265.2,152.7 265.2,150.2 265.1,147.8 265.1,145.3 265.1,142.8 265.1,140.4 265,137.9 
	265,135.5 264.9,133.1 264.9,130.7 264.8,128.2 264.8,125.9 264.7,123.5 264.6,121.1 264.6,118.8 264.5,116.5 264.4,114.2 
	264.3,111.9 264.2,109.6 264.1,107.4 264,105.2 263.9,103 263.8,100.8 263.7,98.7 263.5,96.6 263.4,94.5 263.2,92.4 263.1,90.4 
	262.9,88.3 262.8,86.4 262.6,84.4 262.5,82.5 262.3,80.6 262.1,78.8 261.9,76.9 261.7,75.2 261.5,73.4 261.3,71.7 261.1,70 
	260.9,68.4 260.6,66.8 260.4,65.2 260.2,63.7 259.9,62.2 259.7,60.7 259.4,59.3 259.1,58 258.9,56.6 258.6,55.4 258.3,54.1 
	258,52.9 257.7,51.7 257.4,50.6 257,49.6 256.7,48.5 256.4,47.6 256.1,46.6 255.7,45.7 255.4,44.9 255,44.1 254.6,43.3 254.3,42.6 
	253.9,42 253.5,41.4 253.1,40.8 252.7,40.3 252.3,39.8 251.8,39.4 251.4,39.1 251,38.7 250.5,38.5 250.1,38.3 249.6,38.1 249.2,38 
	248.7,37.9 248.2,37.9 218.1,37.9 218.6,37.9 219.1,38 219.5,38.1 220,38.3 220.4,38.5 220.9,38.7 221.3,39.1 221.7,39.4 
	222.1,39.8 222.6,40.3 223,40.8 223.4,41.4 223.7,42 224.1,42.6 224.5,43.3 224.9,44.1 225.2,44.9 225.6,45.7 225.9,46.6 
	226.3,47.6 226.6,48.5 226.9,49.6 227.2,50.6 227.6,51.7 227.9,52.9 228.2,54.1 228.4,55.4 228.7,56.6 229,58 229.3,59.3 
	229.5,60.7 229.8,62.2 230,63.7 230.3,65.2 230.5,66.8 230.7,68.4 231,70 231.2,71.7 231.4,73.4 231.6,75.2 231.8,76.9 232,78.8 
	232.2,80.6 232.3,82.5 232.5,84.4 232.7,86.4 232.8,88.3 233,90.4 233.1,92.4 233.3,94.5 233.4,96.6 233.5,98.7 233.7,100.8 
	233.8,103 233.9,105.2 234,107.4 234.1,109.6 234.2,111.9 234.3,114.2 234.4,116.5 234.5,118.8 234.5,121.1 234.6,123.5 
	234.7,125.9 234.7,128.2 234.8,130.7 234.8,133.1 234.9,135.5 234.9,137.9 234.9,140.4 235,142.8 235,145.3 235,147.8 235,150.2 
	235,152.7 235.1,155.2 235.1,157.7 235.1,160.2 235.1,162.7 235.1,165.2 235.1,169.7 235.3,175.6 236,181 237,185.7 238.3,189.9 
	240,193.5 242,196.7 243.5,198.6 245,200.2 247.6,202.4 250.3,204.1 253.1,205.6 256.1,206.7 260.2,207.8 265.4,208.6 272.6,208.9 
	279.3,208.5 282.2,208.2 282.2,181.6 "/>
<polygon class="st1" points="208.9,181.6 208.7,181.5 208.5,181.5 208.3,181.4 208.1,181.3 207.9,181.1 207.7,180.9 207.7,180.9 
	207.6,180.8 207.3,180.5 207.1,180.3 207,180.1 206.7,179.8 206.6,179.5 206.3,179.2 206.2,178.8 205.9,178.4 205.7,178 
	205.5,177.6 205.3,177.2 205.1,176.7 204.9,176.2 204.7,175.7 204.5,175.2 204.3,174.7 204.1,174.1 203.8,173.5 203.6,172.9 
	203.4,172.2 203.2,171.6 203,170.9 202.8,170.2 202.5,169.5 202.3,168.7 202.1,167.9 201.8,167.1 201.6,166.3 201.4,165.5 
	201.1,164.6 200.9,163.8 200.6,162.9 200.4,162 200.2,161 199.9,160.1 199.6,159.1 199.4,158.1 199.2,157.1 198.9,156.1 198.6,155 
	198.4,153.9 198.1,152.8 197.8,151.8 197.6,150.6 197.3,149.5 197,148.3 196.8,147.2 196.5,146 196.2,144.8 195.9,143.6 
	195.6,142.3 195.4,141.1 195.1,139.8 194.8,138.5 194.5,137.2 194.2,135.9 193.9,134.6 193.6,133.3 193.2,131.9 192.9,130.5 
	192.6,129.2 192.3,127.8 192,126.4 191.6,125 191.3,123.5 191,122.1 190.6,120.7 190.3,119.2 189.9,117.8 189.6,116.3 189.2,114.8 
	188.9,113.3 188.5,111.8 188.1,110.3 187.8,108.8 187.4,107.3 187,105.8 186.6,104.3 186.2,102.7 185.8,101.2 185.5,99.9 
	185.4,99.6 185,98.1 184.6,96.6 184.1,95 183.7,93.4 183.3,91.9 182.8,90.3 182.4,88.8 181.9,87.2 181.5,85.6 181,84.1 180.5,82.5 
	180,81 179.5,79.4 179,77.9 178.5,76.3 178,74.8 177.5,73.2 176.9,71.7 176.3,70.1 175.8,68.6 175.2,67.1 174.6,65.5 174,64 
	173.4,62.5 172.8,61 172.1,59.5 171.5,58 170.8,56.5 170.1,55.1 169.4,53.6 168.7,52.1 168,50.7 167.3,49.3 166.5,47.9 165.7,46.5 
	164.9,45.1 164,43.7 163.2,42.3 162.3,40.9 161.4,39.6 160.5,38.3 159.5,37 158.5,35.7 157.5,34.4 156.4,33.1 155.3,31.9 
	154.2,30.7 153,29.4 151.8,28.2 150.6,27.1 149.3,25.9 147.9,24.8 146.6,23.6 145.1,22.6 143.6,21.5 142.1,20.4 140.5,19.4 
	138.8,18.4 137.1,17.4 135.2,16.4 133.3,15.5 131.4,14.6 129.3,13.7 127.1,12.8 124.8,12 122.4,11.1 119.9,10.3 117.3,9.6 
	114.4,8.8 111.5,8.1 108.3,7.4 104.9,6.8 101.3,6.1 97.4,5.5 93.2,4.9 88.6,4.4 83.6,3.9 78.1,3.4 72.1,2.9 65.3,2.5 57.7,2.1 
	49,1.7 39,1.4 27.5,1 14.6,0.8 0.8,0.5 0.7,0.5 1.5,0.8 2.3,1 3.1,1.4 3.9,1.7 4.7,2.1 5.5,2.5 6.3,2.9 7.1,3.4 7.9,3.9 8.6,4.4 
	9.4,4.9 10.2,5.5 11,6.1 11.8,6.8 12.6,7.4 13.3,8.1 14.1,8.8 14.9,9.6 15.7,10.3 16.5,11.1 17.2,12 18,12.8 18.8,13.7 19.6,14.6 
	20.4,15.5 21.1,16.4 21.9,17.4 22.7,18.4 23.5,19.4 24.2,20.4 25,21.5 25.8,22.6 26.5,23.6 27.3,24.8 28.1,25.9 28.9,27.1 
	29.6,28.2 30.4,29.4 31.2,30.7 31.9,31.9 32.7,33.1 33.5,34.4 34.2,35.7 35,37 35.7,38.3 36.5,39.6 37.3,40.9 38,42.3 38.8,43.7 
	39.5,45.1 40.3,46.5 41,47.9 41.8,49.3 42.5,50.7 43.3,52.1 44.1,53.6 44.8,55.1 45.6,56.5 46.3,58 47.1,59.5 47.8,61 48.6,62.5 
	49.3,64 50.1,65.5 50.8,67.1 51.6,68.6 52.3,70.1 53,71.7 53.8,73.2 54.5,74.8 55.3,76.3 56,77.9 56.7,79.4 57.5,81 58.2,82.5 
	59,84.1 59.7,85.6 60.4,87.2 61.2,88.8 61.9,90.3 62.6,91.9 63.4,93.4 64.1,95 64.8,96.6 65.5,98.1 66.3,99.6 67,101.2 67.7,102.7 
	68.5,104.3 69.2,105.8 69.9,107.3 70.6,108.8 71.3,110.3 72.1,111.8 72.8,113.3 73.5,114.8 74.2,116.3 75,117.8 75.7,119.2 
	76.4,120.7 77.1,122.1 77.8,123.5 78.5,125 79.3,126.4 80,127.8 80.7,129.2 81.4,130.5 82.1,131.9 82.8,133.3 83.5,134.6 
	84.2,135.9 84.9,137.2 85.6,138.5 86.4,139.8 87,141.1 87.7,142.3 88.5,143.6 89.2,144.8 89.9,146 90.6,147.2 91.3,148.3 92,149.5 
	92.6,150.6 93.3,151.8 94,152.8 94.7,153.9 95.4,155 96.1,156.1 96.8,157.1 97.5,158.1 98.2,159.1 98.9,160.1 99.6,161 100.3,162 
	100.9,162.9 101.6,163.8 102.3,164.6 103,165.5 103.7,166.3 104.4,167.1 105,167.9 105.7,168.7 106.4,169.5 107.1,170.2 
	107.7,170.9 108.4,171.6 109.1,172.2 109.8,172.9 110.4,173.5 111.1,174.1 111.8,174.7 112.4,175.2 113.1,175.7 113.8,176.2 
	114.4,176.7 115.1,177.2 115.8,177.6 116.4,178 117.1,178.4 117.7,178.8 118.4,179.2 119.1,179.5 119.7,179.8 120.4,180.1 
	121,180.3 121.7,180.5 122.3,180.8 123,180.9 123.6,181.1 124.3,181.3 124.9,181.4 125.6,181.5 126.2,181.5 126.9,181.6 
	127.5,181.6 128.2,181.6 128.3,181.6 209.1,181.6 "/>
<g>
	<path class="st0" d="M294.7,37.9h30.1v27h-30.1V37.9z M294.7,85.7H325v122h-30.4V85.7z"/>
	<path class="st0" d="M330.8,85.7h32l25.3,75.6c2.4,7.2,4.1,18.4,4.3,18.4h0.5c0.2,0,1.9-11.2,4.3-18.4l25.4-75.6h32l-43.8,122H375
		L330.8,85.7z"/>
	<path class="st0" d="M510.9,82.8c35.1,0,54.1,25.6,54.1,57.9c0,3.6-0.7,11.7-0.7,11.7h-84.2c1.9,21.3,18.4,32.3,36.6,32.3
		c19.6,0,35.1-13.4,35.1-13.4l11.7,21.8c0,0-18.6,17.5-49,17.5c-40.4,0-65.5-29.2-65.5-63.9C449,109.1,474.6,82.8,510.9,82.8z
		 M534.3,131.6c-0.5-16.5-10.7-25.3-24.1-25.3c-15.5,0-26.3,9.6-29.2,25.3H534.3z"/>
	<path class="st0" d="M579.7,181.3c0,0,13.4,14.6,35.9,14.6c12.9,0,24.2-6.5,24.2-19.1c0-26.3-64.8-19.9-64.8-59.1
		c0-21.5,19.4-33.2,41.1-33.2c25.3,0,37.1,13.2,37.1,13.2l-7.4,12.4c0,0-10.3-11-30.1-11c-12.2,0-23.9,5.3-23.9,18.7
		c0,26.5,64.8,19.4,64.8,59.1c0,19.6-17,33.7-41.1,33.7c-29.2,0-44.5-17.5-44.5-17.5L579.7,181.3z"/>
	<path class="st0" d="M680,102.4h-15.8V88.8h16V54.1h16v34.7h30.1v13.6h-30.1v59.8c0,28.2,17.9,31.8,27,31.8c3.3,0,5.5-0.5,5.5-0.5
		v14.6c0,0-2.6,0.5-6.9,0.5c-13.9,0-41.8-4.5-41.8-44.7V102.4z"/>
	<path class="st0" d="M741.9,87.3h16v21.3c0,5.3-0.5,9.6-0.5,9.6h0.5c5.7-18.2,19.1-32,38-32c3.3,0,6.4,0.7,6.4,0.7v16
		c0,0-2.9-0.5-6-0.5c-17,0-29.7,13.4-34.9,31.1c-2.4,7.7-3.3,15.8-3.3,23.4v50.7h-16.3V87.3z"/>
	<path class="st0" d="M862.6,84.5c33.2,0,50.2,25.6,50.2,55.5c0,2.9-0.5,8.4-0.5,8.4h-92.3c0.7,30.9,21.8,47.6,46.6,47.6
		c22,0,36.6-14.6,36.6-14.6l7.4,12.4c0,0-17.5,16.7-44.5,16.7c-35.9,0-62.9-25.8-62.9-62.9C803.3,108.2,830.1,84.5,862.6,84.5z
		 M896.4,134.9c-1-25.1-16.3-36.8-34.2-36.8c-20.1,0-37.5,12.7-41.4,36.8H896.4z"/>
	<path class="st0" d="M995.3,133.3h6.7v-3.1c0-23.2-12.7-31.1-29.9-31.1c-19.8,0-34,11.5-34,11.5l-7.6-12.4c0,0,15.8-13.6,42.8-13.6
		c28.9,0,44.9,16,44.9,46.2v77h-15.5v-13.2c0-6,0.5-10,0.5-10h-0.5c0,0-10,26.1-40.2,26.1c-20.1,0-40.9-11.7-40.9-35.6
		C921.6,134.2,974.5,133.3,995.3,133.3z M965.2,196.6c23,0,36.8-23.9,36.8-44.7v-5.3h-7c-18.9,0-56.6,0.7-56.6,27.3
		C938.4,185.1,947.2,196.6,965.2,196.6z"/>
	<path class="st0" d="M1043.8,87.3h16v17.9c0,5.3-0.5,9.6-0.5,9.6h0.5c5.7-16.3,24.9-30.4,43.5-30.4c22.2,0,33.7,10.3,37.3,30.1h0.5
		c6.4-16.3,23.9-30.1,44.2-30.1c29.2,0,39.9,17,39.9,46.6v76.5H1209v-72.4c0-19.6-4.1-35.9-26.1-35.9c-18.4,0-33.5,16.3-38,33.9
		c-1.7,5.3-2.1,11-2.1,17.5v56.9h-16.3v-72.4c0-18.2-2.6-35.9-25.4-35.9c-19.6,0-34.4,17-39.5,35.4c-1.2,5-1.7,10.5-1.7,16v56.9
		h-16.3V87.3z"/>
</g>
<g>
</g>
<g>
</g>
<g>
</g>
<g>
</g>
<g>
</g>
<g>
</g>
</svg>
