<?xml version="1.0" encoding="utf-8"?>
<!-- Generator: Adobe Illustrator 19.0.0, SVG Export Plug-In . SVG Version: 6.00 Build 0)  -->
<svg version="1.1" id="YouTube_Logo" xmlns="http://www.w3.org/2000/svg" xmlns:xlink="http://www.w3.org/1999/xlink" x="0px"
	 y="0px" viewBox="0 0 502 210" style="enable-background:new 0 0 502 210;" xml:space="preserve">
<style type="text/css">
	.st0{fill:url(#lozenge_1_);}
	.st1{fill:#FFFFFF;}
</style>
<linearGradient id="lozenge_1_" gradientUnits="userSpaceOnUse" x1="352.2065" y1="0.4614" x2="352.2065" y2="209.5386">
	<stop  offset="0" style="stop-color:#E32E28"/>
	<stop  offset="1" style="stop-color:#BE2126"/>
</linearGradient>
<path id="lozenge_2_" class="st0" d="M498.5,45.6c0,0-2.9-20.5-11.9-29.5C475.3,4.2,462.6,4.2,456.7,3.5c-41.8-3-104.5-3-104.5-3
	h-0.1c0,0-62.7,0-104.5,3c-5.8,0.7-18.6,0.8-29.9,12.6c-9,9-11.9,29.5-11.9,29.5s-3,24.1-3,48.1v22.6c0,24.1,3,48.1,3,48.1
	s2.9,20.5,11.9,29.5c11.4,11.8,26.3,11.5,32.9,12.7c23.9,2.3,101.5,3,101.5,3s62.7-0.1,104.5-3.1c5.8-0.7,18.6-0.8,29.9-12.6
	c9-9,11.9-29.5,11.9-29.5s3-24.1,3-48.1V93.7C501.5,69.6,498.5,45.6,498.5,45.6z"/>
<g id="You">
	<path id="u_2_" d="M187.5,169.7h-19v-11c-7.2,8.3-13.3,12.4-20,12.4c-5.8,0-9.9-2.8-11.9-7.7c-1.2-3-2.1-7.8-2.1-14.7v-80h19v75
		c0,4.2,0,6,0,7c0.4,2.8,1.6,3.8,4.1,3.8c3.6,0,6.9-3.2,10.9-8.8v-77h19V169.7z"/>
	<path id="o_2_" d="M120.5,101.7c0-10.8-2.2-18.9-6-24c-5.1-6.9-13-9.7-21-9.7c-9.1,0-15.9,2.8-21,9.7c-3.9,5.1-6,13.3-6,24.1
		l0,35.9c0,10.7,1.9,18.1,5.8,23.2c5.1,6.9,13.2,10.5,21.2,10.5s16.3-3.6,21.4-10.5c3.8-5.1,5.6-12.5,5.6-23.2V101.7z M101.5,139.7
		c1,10-2.1,15-8,15s-9-5-8-15v-40c-1-10,2.1-14.7,8-14.7c5.9,0,9,4.7,8,14.7L101.5,139.7z"/>
	<path id="y_2_" d="M45.5,114.7v55h-20v-55c0,0-20.7-67.4-25-80h21l14,52.7l14-52.7h21L45.5,114.7z"/>
</g>
<g id="Tube">
	<path id="e_1_" class="st1" d="M476.5,122.7l0-20.4c0-10.7-2.1-18.5-5.9-23.5c-5.1-6.8-12.3-10.5-21.4-10.5
		c-9.2,0-16.5,3.6-21.7,10.5c-3.8,5.1-6.1,13.3-6.1,24v35c0,10.6,2.5,18.1,6.3,23.1c5.2,6.8,12.4,10.2,21.9,10.2
		c9.5,0,16.9-3.6,21.9-10.8c2.2-3.2,3.6-6.8,4.2-10.8c0.2-1.8,0.6-5.9,0.6-11.8v-2.8h-19c0,7.3,0,11.6-0.1,12.6
		c-1,4.8-3.6,7.3-8.1,7.3c-6.2,0-8.8-4.6-8.8-13.9v-18H476.5z M440.5,96.6c0-9.3,2.6-11.9,8.6-11.9c6,0,8.4,2.8,8.4,12v10.9l-17,0
		V96.6z"/>
	<path id="b_1_" class="st1" d="M392.6,68.1c-6.7,0-13.3,4.1-19.1,11.3l0-43.7h-18v134h18l0-10.1c6,7.5,12.6,11.4,19.1,11.4
		c7.2,0,12.5-3.9,14.9-11.3c1.2-4.2,2-10.8,2-20v-40c0-9.5-1.2-15.9-2.4-20C404.6,72.2,399.8,68.1,392.6,68.1z M390.5,140.7
		c0,10-2.4,13.8-7.6,13.8c-3,0-6.4-1.5-9.4-4.6l0-60.6c3-3,6.4-4.6,9.4-4.6c5.2,0,7.6,2.9,7.6,12.9V140.7z"/>
	<path id="u_1_" class="st1" d="M340.5,169.7h-19v-11c-7.2,8.3-13.3,12.4-20,12.4c-5.8,0-9.9-2.8-11.9-7.7c-1.2-3-2.1-7.8-2.1-14.7
		v-79h19v74c0,4.2,0,6,0,7c0.4,2.8,1.6,3.8,4.1,3.8c3.6,0,6.9-3.2,10.9-8.8v-76h19V169.7z"/>
	<polygon id="T_2_" class="st1" points="268.5,169.7 248.5,169.7 248.5,54.7 227.5,54.7 227.5,35.7 290.5,35.7 290.5,54.7 
		268.5,54.7 	"/>
</g>
<g>
</g>
<g>
</g>
<g>
</g>
<g>
</g>
<g>
</g>
<g>
</g>
</svg>
