<?xml version="1.0" encoding="iso-8859-1"?>
<!-- Generator: Adobe Illustrator 19.0.0, SVG Export Plug-In . SVG Version: 6.00 Build 0)  -->
<svg version="1.1" id="Capa_1" xmlns="http://www.w3.org/2000/svg" xmlns:xlink="http://www.w3.org/1999/xlink" x="0px" y="0px"
	 viewBox="0 0 190 65" style="enable-background:new 0 0 190 65;" xml:space="preserve">
<path id="XMLID_75_" d="M190,55.471c0,5.263-4.254,9.529-9.5,9.529H9.5C4.254,65,0,60.733,0,55.471V9.529C0,4.266,4.254,0,9.5,0h171
	c5.247,0,9.5,4.266,9.5,9.529V55.471z"/>
<g>
	<path id="XMLID_74_" style="fill:#FFFFFF;" d="M59.291,52.305c0,3.683-2.985,6.667-6.667,6.667H13.279
		c-3.682,0-6.667-2.984-6.667-6.667V12.96c0-3.682,2.985-6.667,6.667-6.667h39.345c3.682,0,6.667,2.985,6.667,6.667V52.305z"/>
	<linearGradient id="XMLID_148_" gradientUnits="userSpaceOnUse" x1="33.0545" y1="23.4751" x2="33.0545" y2="59.0752">
		<stop  offset="0" style="stop-color:#F6A02D"/>
		<stop  offset="1" style="stop-color:#C8670F"/>
	</linearGradient>
	<path id="XMLID_73_" style="fill:url(#XMLID_148_);" d="M59.394,52.408c0,3.682-2.985,6.667-6.668,6.667H13.382
		c-3.682,0-6.667-2.985-6.667-6.667V23.475c0,0,11.215,1.955,26.34,1.844c14.202-0.104,26.339-1.844,26.339-1.844V52.408z"/>
	<path d="M52.727,59.023H13.382c-3.705,0-6.719-3.014-6.719-6.719V12.96c0-3.705,3.014-6.719,6.719-6.719h39.345
		c3.705,0,6.719,3.014,6.719,6.719v39.345C59.445,56.01,56.432,59.023,52.727,59.023z M13.382,6.344
		c-3.648,0-6.616,2.968-6.616,6.616v39.345c0,3.648,2.968,6.616,6.616,6.616h39.345c3.648,0,6.616-2.968,6.616-6.616V12.96
		c0-3.648-2.968-6.616-6.616-6.616H13.382z"/>
	<path id="XMLID_70_" style="fill-rule:evenodd;clip-rule:evenodd;" d="M37.525,20.123c-2.15,1.627-5.268,2.493-7.952,2.493
		c-3.763,0-7.15-1.426-9.714-3.8c-0.201-0.186-0.022-0.441,0.22-0.296c2.766,1.65,6.186,2.645,9.72,2.645
		c2.383,0,5.003-0.507,7.414-1.556C37.576,19.45,37.881,19.854,37.525,20.123z"/>
	<path id="XMLID_69_" style="fill-rule:evenodd;clip-rule:evenodd;" d="M38.42,19.076c-0.275-0.361-1.818-0.171-2.511-0.086
		c-0.21,0.026-0.242-0.162-0.053-0.298c1.231-0.887,3.248-0.63,3.482-0.334c0.236,0.3-0.062,2.373-1.216,3.363
		c-0.177,0.152-0.346,0.071-0.268-0.13C38.114,20.925,38.695,19.437,38.42,19.076z"/>
	<path id="XMLID_68_" style="fill-rule:evenodd;clip-rule:evenodd;" d="M35.855,12.428v-0.861c0-0.131,0.097-0.218,0.213-0.218
		h3.765c0.12,0,0.217,0.09,0.217,0.217l0,0.739c-0.001,0.124-0.103,0.286-0.283,0.543l-1.951,2.855
		c0.724-0.017,1.49,0.094,2.148,0.473c0.148,0.085,0.188,0.212,0.2,0.336v0.92c0,0.126-0.135,0.273-0.277,0.197
		c-1.159-0.623-2.697-0.691-3.978,0.007c-0.131,0.072-0.268-0.073-0.268-0.199v-0.874c0-0.14,0.002-0.379,0.14-0.592l2.26-3.324
		h-1.968C35.952,12.646,35.855,12.558,35.855,12.428z"/>
	<path id="XMLID_67_" style="fill-rule:evenodd;clip-rule:evenodd;" d="M22.224,17.809h-1.145c-0.109-0.007-0.196-0.091-0.205-0.199
		l0.001-6.028c0-0.121,0.099-0.217,0.221-0.217l1.066-0.001c0.112,0.006,0.202,0.093,0.209,0.203v0.787h0.021
		c0.278-0.761,0.802-1.117,1.508-1.117c0.716,0,1.165,0.356,1.486,1.117c0.278-0.761,0.909-1.117,1.583-1.117
		c0.481,0,1.005,0.203,1.326,0.66c0.364,0.508,0.289,1.243,0.289,1.89l-0.001,3.805c0,0.12-0.099,0.217-0.221,0.217h-1.144
		c-0.115-0.008-0.206-0.101-0.206-0.216v-3.196c0-0.253,0.021-0.888-0.032-1.129c-0.085-0.406-0.342-0.52-0.673-0.52
		c-0.278,0-0.567,0.19-0.685,0.495c-0.118,0.305-0.107,0.812-0.107,1.154v3.196c0,0.12-0.099,0.217-0.221,0.217h-1.144
		c-0.115-0.008-0.206-0.101-0.206-0.216l-0.001-3.196c0-0.672,0.107-1.662-0.706-1.662c-0.823,0-0.792,0.964-0.792,1.662l0,3.196
		C22.445,17.712,22.346,17.809,22.224,17.809z"/>
	<path style="fill-rule:evenodd;clip-rule:evenodd;" d="M43.188,11.237c1.7,0,2.62,1.497,2.62,3.4c0,1.839-1.016,3.298-2.62,3.298
		c-1.668,0-2.577-1.497-2.577-3.362C40.611,12.696,41.531,11.237,43.188,11.237z M43.199,12.468c-0.845,0-0.898,1.179-0.898,1.915
		c0,0.736-0.011,2.309,0.888,2.309c0.887,0,0.93-1.269,0.93-2.042c0-0.507-0.021-1.116-0.171-1.599
		C43.819,12.633,43.562,12.468,43.199,12.468z"/>
	<path id="XMLID_64_" style="fill-rule:evenodd;clip-rule:evenodd;" d="M48.013,17.809h-1.141c-0.115-0.008-0.206-0.101-0.206-0.216
		l-0.002-6.031c0.01-0.11,0.104-0.197,0.22-0.197l1.062-0.001c0.1,0.005,0.182,0.075,0.204,0.169v0.922h0.021
		c0.32-0.825,0.77-1.218,1.561-1.218c0.513,0,1.016,0.19,1.336,0.71c0.299,0.482,0.299,1.294,0.299,1.877v3.793
		c-0.013,0.107-0.106,0.19-0.219,0.19h-1.148c-0.107-0.007-0.191-0.087-0.204-0.19v-3.273c0-0.66,0.075-1.624-0.716-1.624
		c-0.278,0-0.535,0.19-0.663,0.482c-0.16,0.368-0.182,0.736-0.182,1.142v3.246C48.233,17.712,48.135,17.809,48.013,17.809z"/>
	<path style="fill-rule:evenodd;clip-rule:evenodd;" d="M32.956,14.93c0,0.458,0.011,0.839-0.214,1.246
		c-0.183,0.331-0.472,0.534-0.793,0.534c-0.439,0-0.696-0.343-0.696-0.852c0-1,0.875-1.183,1.704-1.183V14.93z M34.111,17.794
		c-0.076,0.07-0.185,0.074-0.271,0.027c-0.38-0.324-0.448-0.474-0.656-0.783c-0.629,0.657-1.074,0.854-1.889,0.854
		c-0.964,0-1.714-0.61-1.714-1.831c0-0.954,0.503-1.602,1.221-1.919c0.622-0.28,1.49-0.331,2.154-0.407v-0.153
		c0-0.28,0.021-0.61-0.139-0.851c-0.139-0.216-0.407-0.305-0.643-0.305c-0.436,0-0.825,0.23-0.92,0.705
		c-0.02,0.106-0.095,0.21-0.199,0.216l-1.11-0.123c-0.094-0.021-0.198-0.099-0.171-0.246c0.255-1.381,1.472-1.798,2.562-1.798
		c0.557,0,1.286,0.152,1.725,0.585c0.557,0.534,0.503,1.246,0.503,2.021v1.83c0,0.551,0.223,0.792,0.433,1.089
		c0.073,0.107,0.089,0.234-0.004,0.312c-0.234,0.201-0.649,0.571-0.878,0.78L34.111,17.794z"/>
	<path style="fill-rule:evenodd;clip-rule:evenodd;" d="M18.043,14.93c0,0.458,0.011,0.839-0.214,1.246
		c-0.182,0.331-0.472,0.534-0.793,0.534c-0.439,0-0.696-0.343-0.696-0.852c0-1,0.875-1.183,1.704-1.183V14.93z M19.198,17.794
		c-0.076,0.07-0.186,0.074-0.271,0.027c-0.381-0.324-0.449-0.474-0.657-0.783c-0.629,0.657-1.074,0.854-1.889,0.854
		c-0.964,0-1.714-0.61-1.714-1.831c0-0.954,0.503-1.602,1.222-1.919c0.621-0.28,1.489-0.331,2.154-0.407v-0.153
		c0-0.28,0.021-0.61-0.139-0.851c-0.14-0.216-0.407-0.305-0.643-0.305c-0.437,0-0.825,0.23-0.92,0.705
		c-0.02,0.106-0.095,0.21-0.199,0.216l-1.11-0.123c-0.094-0.021-0.198-0.099-0.171-0.246c0.255-1.381,1.471-1.798,2.562-1.798
		c0.557,0,1.286,0.152,1.725,0.585c0.557,0.534,0.504,1.246,0.504,2.021v1.83c0,0.551,0.223,0.792,0.432,1.089
		c0.073,0.107,0.089,0.234-0.004,0.312c-0.234,0.201-0.649,0.571-0.878,0.78L19.198,17.794z"/>
	<circle id="XMLID_59_" style="fill:#24296A;" cx="18.206" cy="40.194" r="9.312"/>
	<path id="XMLID_58_" style="fill:#FFFFFF;" d="M18.727,36.639h-2.234v8.279c0,0-0.099,0.163-0.296-0.104
		c-0.097-0.132-2.726-4.036-2.726-4.036s-0.427-0.427-1.051-0.263c-0.624,0.164-0.854,0.591-0.558,1.117
		c0.295,0.525,2.299,5.288,4.894,6.603c1.845,0.934,4.041,0.59,5.289,0c1.105-0.523,2.832-1.807,2.963-3.515
		c0.131-1.709-0.003-3.22-0.003-3.22h-1.163v2.069h-0.747v-3.022h-1.314v2.471h-0.784v-3.226h-1.478v3.062h-0.718L18.727,36.639z"/>
	<rect id="XMLID_57_" x="12.551" y="36.639" style="fill:#FFFFFF;" width="1.872" height="1.15"/>
	<rect id="XMLID_56_" x="20.911" y="36.639" style="fill:#FFFFFF;" width="1.872" height="1.15"/>
	<rect id="XMLID_55_" x="16.624" y="32.5" style="fill:#FFFFFF;" width="1.938" height="2.168"/>
	<polygon id="XMLID_54_" style="fill:#FFFFFF;" points="14.949,35.719 15.639,35.029 14.362,33.715 13.59,34.405 	"/>
	<polygon id="XMLID_53_" style="fill:#FFFFFF;" points="20.473,35.514 19.886,34.721 21.266,33.612 21.832,34.405 	"/>
	<g>
		<g>
			<path style="fill:#FFFFFF;" d="M30.504,36.109c0.488-0.255,1.171-0.606,2.272-0.606c2.23,0,2.747,1.243,2.747,3.301v3.588
				c0,0.591-0.047,1.133-0.005,1.451h-1.562c-0.035-0.376,0.005-0.717,0.005-1.116h-0.028c-0.432,0.67-0.976,1.244-2.008,1.244
				c-1.115,0-2.147-0.877-2.147-2.408c0-2.232,1.589-2.791,3.778-2.791h0.349V38.47c0-0.813-0.349-1.562-1.338-1.562
				c-0.865,0-1.631,0.479-1.966,0.797L30.504,36.109z M33.906,39.825h-0.153c-1.478,0-2.356,0.351-2.356,1.547
				c0,0.75,0.433,1.26,1.102,1.26c1.032,0,1.408-0.877,1.408-2.344V39.825z"/>
			<path style="fill:#FFFFFF;" d="M31.926,44.023c-1.092,0-2.198-0.845-2.198-2.46c0-2.52,2.046-2.842,3.83-2.842h0.297V38.47
				c0-0.454-0.125-1.512-1.287-1.512c-0.875,0-1.625,0.493-1.93,0.783c-0.015,0.015-0.036,0.018-0.055,0.011
				c-0.018-0.007-0.031-0.024-0.032-0.045l-0.098-1.595c-0.001-0.02,0.01-0.039,0.027-0.049c0.466-0.243,1.17-0.611,2.296-0.611
				c2.322,0,2.798,1.34,2.798,3.352v3.588c0,0.221-0.006,0.43-0.013,0.632c-0.01,0.331-0.019,0.616,0.007,0.812
				c0.002,0.016-0.002,0.03-0.012,0.041c-0.01,0.011-0.024,0.018-0.039,0.018h-1.562c-0.026,0-0.049-0.021-0.051-0.047
				c-0.023-0.245-0.014-0.473-0.005-0.714c0.003-0.09,0.007-0.182,0.009-0.276C33.51,43.451,32.953,44.023,31.926,44.023z
				 M33.558,38.824c-2.577,0-3.726,0.845-3.726,2.739c0,1.547,1.054,2.357,2.095,2.357c1.034,0,1.556-0.587,1.964-1.221
				c0.01-0.015,0.026-0.023,0.044-0.023h0.028c0.028,0,0.051,0.022,0.051,0.051c0,0.144-0.005,0.28-0.01,0.411
				c-0.008,0.223-0.016,0.433,0.001,0.654h1.457c-0.019-0.2-0.01-0.467-0.001-0.771c0.006-0.201,0.012-0.409,0.012-0.629v-3.588
				c0-1.951-0.458-3.25-2.695-3.25c-1.078,0-1.762,0.346-2.219,0.585l0.089,1.455c0.355-0.304,1.083-0.739,1.921-0.739
				c0.883,0,1.39,0.588,1.39,1.614v0.303c0,0.028-0.023,0.052-0.051,0.052H33.558z M32.498,42.684c-0.69,0-1.153-0.527-1.153-1.312
				c0-1.12,0.72-1.598,2.408-1.598h0.153c0.028,0,0.051,0.023,0.051,0.051v0.463C33.958,41.923,33.494,42.684,32.498,42.684z
				 M33.753,39.877c-1.616,0-2.305,0.447-2.305,1.495c0,0.734,0.412,1.209,1.05,1.209c0.926,0,1.356-0.729,1.356-2.293v-0.411
				H33.753z"/>
		</g>
		<g>
			<path style="fill:#FFFFFF;" d="M37.154,37.034c0-0.59-0.004-1.041-0.004-1.389l1.513,0.004c0.014,0.257,0.006,0.288,0.006,0.846
				h0.042c0.279-0.701,0.897-0.991,2.013-0.991c1.785,0,2.626,1.945,2.626,4.226c0,2.68-1.037,4.036-2.584,4.036
				c-1.032,0-1.604-0.155-1.854-0.793h-0.028v3.904h-1.729V37.034z M40.222,42.314c0.962,0,1.502-0.862,1.502-2.505
				c0-1.897-0.47-2.854-1.474-2.854c-1.018,0-1.366,1.156-1.366,2.703C38.883,41.254,39.273,42.314,40.222,42.314z"/>
			<path style="fill:#FFFFFF;" d="M38.883,46.929h-1.729c-0.028,0-0.051-0.023-0.051-0.052v-9.843c0-0.333-0.001-0.623-0.003-0.874
				c-0.001-0.193-0.002-0.363-0.002-0.515c0-0.014,0.005-0.027,0.015-0.037c0.01-0.009,0.023-0.015,0.037-0.015l0,0l1.514,0.004
				c0.027,0,0.05,0.022,0.051,0.049c0.009,0.171,0.009,0.242,0.007,0.432c0,0.069-0.001,0.155-0.001,0.268
				c0.307-0.625,0.917-0.893,2.003-0.893c1.627,0,2.678,1.679,2.678,4.277s-0.96,4.088-2.635,4.088c-0.92,0-1.528-0.114-1.831-0.672
				v3.731C38.935,46.905,38.912,46.929,38.883,46.929z M37.206,46.826h1.625v-3.854c0-0.028,0.023-0.052,0.052-0.052h0.028
				c0.021,0,0.04,0.014,0.048,0.033c0.221,0.561,0.693,0.761,1.807,0.761c1.609,0,2.533-1.452,2.533-3.985
				c0-1.926-0.674-4.175-2.575-4.175c-1.11,0-1.698,0.287-1.965,0.96c-0.008,0.019-0.027,0.032-0.048,0.032h-0.042
				c-0.029,0-0.052-0.024-0.052-0.052c0-0.19,0.001-0.319,0.002-0.418c0.001-0.168,0.002-0.242-0.005-0.377l-1.413-0.004
				c0,0.139,0.001,0.292,0.002,0.463c0.001,0.252,0.003,0.541,0.003,0.875V46.826z M40.222,42.366c-0.909,0-1.39-0.937-1.39-2.708
				c0-1.828,0.477-2.755,1.418-2.755c1.027,0,1.526,0.95,1.526,2.906C41.775,41.458,41.224,42.366,40.222,42.366z M40.25,37.006
				c-0.873,0-1.315,0.892-1.315,2.652c0,1.188,0.223,2.604,1.287,2.604c0.936,0,1.451-0.871,1.451-2.453
				C41.672,37.923,41.207,37.006,40.25,37.006z"/>
		</g>
		<g>
			<path style="fill:#FFFFFF;" d="M51.765,41.642c0.291,0.124,1.031,0.63,1.874,0.63c0.654,0,1.162-0.171,1.162-0.79
				c0-0.31-0.145-0.604-0.799-1.007l-1.049-0.67c-0.755-0.48-1.274-0.829-1.274-1.938c0-1.279,1.002-2.363,2.585-2.363
				c0.959,0,1.699,0.263,1.874,0.325l-0.102,1.486c-0.45-0.185-0.929-0.356-1.583-0.356c-0.726,0-1.031,0.295-1.031,0.774
				c0,0.434,0.219,0.602,0.741,0.958l1.242,0.594c0.977,0.572,1.243,1.368,1.243,2.088c0,1.472-1.059,2.457-2.686,2.457
				c-0.93,0-1.905-0.335-2.283-0.49L51.765,41.642z"/>
			<path style="fill:#FFFFFF;" d="M53.961,43.882c-1.046,0-2.101-0.411-2.302-0.494c-0.02-0.009-0.033-0.028-0.032-0.05l0.087-1.698
				c0.001-0.017,0.01-0.032,0.024-0.041c0.014-0.009,0.032-0.011,0.047-0.004c0.062,0.026,0.143,0.068,0.236,0.118
				c0.359,0.19,0.96,0.507,1.618,0.507c0.758,0,1.11-0.234,1.11-0.738c0-0.291-0.131-0.566-0.774-0.963l-1.05-0.671
				c-0.725-0.461-1.298-0.825-1.298-1.98c0-1.399,1.108-2.415,2.636-2.415c0.441,0,1.127,0.057,1.891,0.328
				c0.022,0.008,0.036,0.029,0.034,0.052l-0.102,1.487c-0.001,0.017-0.01,0.031-0.024,0.04c-0.014,0.009-0.032,0.01-0.047,0.004
				c-0.432-0.179-0.908-0.353-1.563-0.353c-0.659,0-0.979,0.236-0.979,0.723c0,0.409,0.207,0.567,0.719,0.916l1.234,0.589
				c0.845,0.495,1.272,1.213,1.272,2.135C56.698,42.873,55.598,43.882,53.961,43.882z M51.731,43.306
				c0.263,0.105,1.252,0.474,2.229,0.474c1.6,0,2.634-0.944,2.634-2.406c0-0.883-0.41-1.57-1.218-2.044l-1.237-0.591
				c-0.537-0.365-0.771-0.544-0.771-1.005c0-0.376,0.188-0.825,1.083-0.825c0.641,0,1.113,0.16,1.537,0.333l0.094-1.377
				c-0.735-0.255-1.394-0.31-1.82-0.31c-1.468,0-2.534,0.973-2.534,2.312c0,1.1,0.524,1.433,1.251,1.894l1.049,0.671
				c0.584,0.359,0.822,0.664,0.822,1.05c0,0.566-0.397,0.841-1.213,0.841c-0.683,0-1.298-0.324-1.666-0.519
				c-0.06-0.031-0.114-0.059-0.161-0.083L51.731,43.306z"/>
		</g>
		<g>
			<path style="fill:#FFFFFF;" d="M44.583,37.034c0-0.59-0.004-1.041-0.004-1.389l1.514,0.004c0.014,0.257,0.005,0.288,0.005,0.846
				h0.042c0.279-0.701,0.898-0.991,2.013-0.991c1.785,0,2.626,1.945,2.626,4.226c0,2.68-1.037,4.036-2.584,4.036
				c-1.032,0-1.604-0.155-1.854-0.793h-0.028v3.904h-1.729V37.034z M47.65,42.314c0.962,0,1.502-0.862,1.502-2.505
				c0-1.897-0.471-2.854-1.475-2.854c-1.018,0-1.366,1.156-1.366,2.703C46.312,41.254,46.702,42.314,47.65,42.314z"/>
			<path style="fill:#FFFFFF;" d="M46.312,46.929h-1.729c-0.028,0-0.051-0.023-0.051-0.052v-9.843c0-0.333-0.001-0.623-0.003-0.874
				c-0.001-0.193-0.001-0.363-0.001-0.515c0-0.014,0.005-0.027,0.015-0.037c0.009-0.009,0.022-0.015,0.036-0.015l0,0l1.514,0.004
				c0.027,0,0.05,0.022,0.051,0.049c0.009,0.171,0.009,0.242,0.007,0.432c0,0.069-0.001,0.155-0.001,0.268
				c0.307-0.625,0.917-0.893,2.002-0.893c1.627,0,2.678,1.679,2.678,4.277s-0.961,4.088-2.636,4.088
				c-0.92,0-1.528-0.114-1.831-0.672v3.731C46.363,46.905,46.34,46.929,46.312,46.929z M44.634,46.826h1.625v-3.854
				c0-0.028,0.023-0.052,0.052-0.052h0.028c0.021,0,0.04,0.014,0.048,0.033c0.221,0.561,0.694,0.761,1.807,0.761
				c1.609,0,2.533-1.452,2.533-3.985c0-1.926-0.674-4.175-2.575-4.175c-1.11,0-1.697,0.287-1.965,0.96
				c-0.008,0.019-0.026,0.032-0.048,0.032h-0.042c-0.028,0-0.051-0.024-0.051-0.052c0-0.19,0.001-0.319,0.001-0.418
				c0.001-0.168,0.002-0.242-0.004-0.377l-1.413-0.004c0,0.139,0.001,0.292,0.001,0.463c0.001,0.252,0.003,0.541,0.003,0.875V46.826
				z M47.65,42.366c-0.909,0-1.39-0.937-1.39-2.708c0-1.828,0.477-2.755,1.418-2.755c1.027,0,1.526,0.95,1.526,2.906
				C49.204,41.458,48.652,42.366,47.65,42.366z M47.678,37.006c-0.873,0-1.314,0.892-1.314,2.652c0,1.188,0.223,2.604,1.287,2.604
				c0.936,0,1.451-0.871,1.451-2.453C49.101,37.923,48.635,37.006,47.678,37.006z"/>
		</g>
	</g>
</g>
<g>
	<g>
		<path id="XMLID_31_" style="fill-rule:evenodd;clip-rule:evenodd;fill:#F49700;" d="M134.851,52.2
			c-5.904,4.357-14.465,6.675-21.836,6.675c-10.33,0-19.632-3.818-26.673-10.175c-0.552-0.499-0.059-1.182,0.604-0.795
			c7.596,4.42,16.988,7.081,26.688,7.081c6.545,0,13.738-1.358,20.357-4.164C134.99,50.398,135.827,51.479,134.851,52.2z"/>
		<path id="XMLID_30_" style="fill-rule:evenodd;clip-rule:evenodd;fill:#F49700;" d="M137.308,49.396
			c-0.756-0.968-4.992-0.459-6.895-0.23c-0.577,0.069-0.666-0.435-0.147-0.8c3.38-2.373,8.918-1.688,9.562-0.894
			c0.648,0.802-0.17,6.354-3.338,9.004c-0.486,0.408-0.95,0.19-0.734-0.349C136.468,54.349,138.063,50.362,137.308,49.396z"/>
	</g>
	<path id="XMLID_29_" style="fill-rule:evenodd;clip-rule:evenodd;fill:#FFFFFF;" d="M130.547,31.596v-2.307
		c0.001-0.351,0.266-0.585,0.584-0.584l10.338-0.001c0.331,0,0.597,0.241,0.597,0.583v1.979c-0.003,0.332-0.282,0.766-0.779,1.451
		l-5.354,7.647c1.987-0.047,4.091,0.251,5.897,1.266c0.406,0.229,0.516,0.568,0.547,0.9v2.461c0,0.34-0.37,0.732-0.76,0.528
		c-3.183-1.667-7.405-1.851-10.924,0.019c-0.359,0.192-0.735-0.194-0.735-0.533v-2.341c0-0.374,0.007-1.014,0.384-1.584l6.205-8.901
		l-5.402-0.001C130.813,32.177,130.549,31.94,130.547,31.596z"/>
	<path id="XMLID_28_" style="fill-rule:evenodd;clip-rule:evenodd;fill:#FFFFFF;" d="M92.835,46.003H89.69
		c-0.3-0.02-0.539-0.244-0.562-0.531L89.13,29.33c0-0.325,0.271-0.582,0.606-0.582l2.929-0.001c0.307,0.016,0.553,0.247,0.573,0.542
		v2.107h0.059c0.764-2.038,2.202-2.989,4.139-2.989c1.967,0,3.2,0.951,4.081,2.989c0.764-2.038,2.495-2.989,4.346-2.989
		c1.321,0,2.76,0.544,3.64,1.767c0.998,1.358,0.793,3.329,0.793,5.062l-0.002,10.187c0,0.323-0.272,0.581-0.606,0.581h-3.142
		c-0.315-0.02-0.565-0.271-0.565-0.581v-8.556c0-0.681,0.059-2.379-0.089-3.024c-0.234-1.087-0.938-1.393-1.849-1.393
		c-0.764,0-1.557,0.51-1.879,1.325c-0.323,0.816-0.294,2.173-0.294,3.092v8.556c0,0.323-0.271,0.581-0.606,0.581h-3.142
		c-0.315-0.02-0.565-0.271-0.565-0.581l-0.002-8.556c0-1.801,0.293-4.451-1.938-4.451c-2.261,0-2.172,2.582-2.172,4.451
		l-0.002,8.556C93.442,45.745,93.17,46.003,92.835,46.003z"/>
	<path style="fill-rule:evenodd;clip-rule:evenodd;fill:#FFFFFF;" d="M150.965,28.407c4.669,0,7.193,4.008,7.193,9.104
		c0,4.926-2.788,8.833-7.193,8.833c-4.58,0-7.075-4.01-7.075-9.002C143.89,32.313,146.414,28.407,150.965,28.407z M150.994,31.702
		c-2.319,0-2.466,3.159-2.466,5.13c0,1.97-0.029,6.181,2.437,6.181c2.438,0,2.555-3.396,2.555-5.468c0-1.359-0.059-2.989-0.47-4.28
		C152.697,32.144,151.992,31.702,150.994,31.702z"/>
	<path id="XMLID_25_" style="fill-rule:evenodd;clip-rule:evenodd;fill:#FFFFFF;" d="M164.212,46.003h-3.134
		c-0.315-0.02-0.564-0.271-0.564-0.581l-0.005-16.147c0.027-0.296,0.287-0.527,0.605-0.527l2.918-0.001
		c0.273,0.014,0.501,0.202,0.559,0.452v2.469h0.06c0.88-2.208,2.113-3.261,4.285-3.261c1.409,0,2.789,0.51,3.67,1.903
		c0.822,1.292,0.822,3.464,0.822,5.027v10.157c-0.035,0.287-0.292,0.509-0.602,0.509h-3.153c-0.292-0.02-0.526-0.232-0.561-0.509
		V36.73c0-1.767,0.207-4.348-1.967-4.348c-0.764,0-1.469,0.509-1.819,1.291c-0.44,0.984-0.5,1.97-0.5,3.058v8.691
		C164.819,45.745,164.547,46.003,164.212,46.003z"/>
	<path style="fill-rule:evenodd;clip-rule:evenodd;fill:#FFFFFF;" d="M122.306,38.294c0,1.226,0.029,2.246-0.589,3.337
		c-0.501,0.885-1.295,1.43-2.178,1.43c-1.206,0-1.912-0.92-1.912-2.281c0-2.68,2.402-3.166,4.679-3.166V38.294z M125.477,45.962
		c-0.209,0.188-0.509,0.199-0.743,0.074c-1.046-0.869-1.232-1.269-1.804-2.096c-1.727,1.759-2.949,2.286-5.186,2.286
		c-2.647,0-4.708-1.636-4.708-4.903c0-2.552,1.383-4.289,3.354-5.14c1.707-0.749,4.091-0.885,5.915-1.091v-0.407
		c0-0.749,0.058-1.634-0.383-2.28c-0.383-0.58-1.118-0.817-1.766-0.817c-1.199,0-2.266,0.614-2.528,1.889
		c-0.055,0.282-0.261,0.562-0.546,0.578l-3.049-0.33c-0.258-0.058-0.543-0.265-0.469-0.658c0.7-3.698,4.04-4.816,7.033-4.816
		c1.529,0,3.53,0.409,4.736,1.567c1.531,1.43,1.383,3.336,1.383,5.413v4.9c0,1.473,0.613,2.12,1.188,2.916
		c0.201,0.285,0.246,0.625-0.011,0.834c-0.642,0.537-1.783,1.53-2.411,2.089L125.477,45.962z"/>
	<path style="fill-rule:evenodd;clip-rule:evenodd;fill:#FFFFFF;" d="M81.074,38.294c0,1.226,0.029,2.246-0.589,3.337
		c-0.499,0.885-1.294,1.43-2.177,1.43c-1.206,0-1.913-0.92-1.913-2.281c0-2.68,2.403-3.166,4.679-3.166V38.294z M84.245,45.962
		c-0.208,0.188-0.509,0.199-0.743,0.074c-1.045-0.869-1.232-1.269-1.804-2.096c-1.726,1.759-2.949,2.286-5.185,2.286
		c-2.649,0-4.707-1.636-4.707-4.903c0-2.552,1.383-4.289,3.353-5.14c1.707-0.749,4.09-0.885,5.914-1.091v-0.407
		c0-0.749,0.059-1.634-0.382-2.28c-0.383-0.58-1.119-0.817-1.766-0.817c-1.199,0-2.267,0.614-2.527,1.889
		c-0.055,0.282-0.261,0.562-0.547,0.578l-3.048-0.33c-0.258-0.058-0.544-0.265-0.47-0.658c0.7-3.698,4.04-4.816,7.033-4.816
		c1.53,0,3.531,0.409,4.738,1.567c1.529,1.43,1.382,3.336,1.382,5.413v4.9c0,1.473,0.613,2.12,1.188,2.916
		c0.201,0.285,0.246,0.625-0.011,0.834c-0.642,0.537-1.784,1.53-2.412,2.089L84.245,45.962z"/>
</g>
<g>
	<g>
		<path style="fill:#FFFFFF;" d="M142.179,19.144c-0.306,1.513-1.393,2.336-2.934,2.336c-2.189,0-3.226-1.513-3.291-3.61
			c0-2.057,1.353-3.57,3.225-3.57c2.429,0,3.172,2.27,3.105,3.929h-5.136c-0.04,1.195,0.637,2.256,2.137,2.256
			c0.929,0,1.579-0.451,1.778-1.34H142.179z M141.09,17.232c-0.053-1.075-0.862-1.938-1.978-1.938c-1.181,0-1.885,0.889-1.964,1.938
			H141.09z"/>
		<path style="fill:#FFFFFF;" d="M143.452,14.459h1.062v1.088h0.027c0.478-0.849,1.247-1.248,2.229-1.248
			c1.805,0,2.362,1.035,2.362,2.509v4.513h-1.128v-4.646c0-0.836-0.531-1.38-1.394-1.38c-1.367,0-2.031,0.916-2.031,2.15v3.876
			h-1.128V14.459z"/>
	</g>
	<g>
		<path style="fill:#FFFFFF;" d="M72.842,11.845h3.252c2.92,0,4.553,1.461,4.553,4.514c0,3.171-1.394,4.962-4.553,4.962h-3.252
			V11.845z M74.103,20.26H76.2c0.863,0,3.186-0.24,3.186-3.73c0-2.255-0.837-3.623-3.159-3.623h-2.124V20.26z"/>
		<path style="fill:#FFFFFF;" d="M82.862,13.226h-1.128v-1.381h1.128V13.226z M81.734,14.46h1.128v6.861h-1.128V14.46z"/>
		<path style="fill:#FFFFFF;" d="M84.972,19.159c0.04,1.008,0.916,1.326,1.845,1.326c0.703,0,1.659-0.158,1.659-1.021
			c0-0.875-1.115-1.021-2.243-1.273c-1.115-0.252-2.243-0.625-2.243-1.937c0-1.381,1.367-1.951,2.562-1.951
			c1.513,0,2.721,0.477,2.814,2.148h-1.128c-0.08-0.875-0.849-1.154-1.593-1.154c-0.677,0-1.46,0.186-1.46,0.877
			c0,0.808,1.195,0.941,2.243,1.193c1.129,0.252,2.243,0.625,2.243,1.951c0,1.633-1.526,2.164-2.92,2.164
			c-1.54,0-2.84-0.623-2.907-2.322H84.972z"/>
		<path style="fill:#FFFFFF;" d="M90.626,14.46h1.128v0.93h0.026c0.372-0.758,1.248-1.088,2.19-1.088
			c2.11,0,3.159,1.672,3.159,3.609c0,1.938-1.035,3.57-3.132,3.57c-0.704,0-1.712-0.266-2.217-1.074h-0.026v3.543h-1.128V14.46z
			 M93.812,15.296c-1.513,0-2.097,1.3-2.097,2.587c0,1.355,0.611,2.602,2.163,2.602c1.54,0,2.057-1.312,2.057-2.654
			C95.935,16.544,95.272,15.296,93.812,15.296z"/>
		<path style="fill:#FFFFFF;" d="M101.085,14.302c2.176,0,3.332,1.578,3.332,3.595c0,2.004-1.156,3.584-3.332,3.584
			c-2.178,0-3.332-1.58-3.332-3.584C97.753,15.88,98.907,14.302,101.085,14.302z M101.085,20.485c1.182,0,2.137-0.928,2.137-2.588
			c0-1.671-0.955-2.601-2.137-2.601c-1.182,0-2.137,0.93-2.137,2.601C98.948,19.557,99.903,20.485,101.085,20.485z"/>
		<path style="fill:#FFFFFF;" d="M105.544,14.46h1.062v1.088h0.025c0.479-0.85,1.248-1.246,2.23-1.246
			c1.805,0,2.363,1.035,2.363,2.507v4.512h-1.129v-4.645c0-0.835-0.531-1.38-1.395-1.38c-1.367,0-2.029,0.916-2.029,2.15v3.875
			h-1.129V14.46z"/>
		<path style="fill:#FFFFFF;" d="M113.786,13.226h-1.129v-1.381h1.129V13.226z M112.657,14.46h1.129v6.861h-1.129V14.46z"/>
		<path style="fill:#FFFFFF;" d="M115.577,11.845h1.129v3.545h0.025c0.373-0.758,1.248-1.088,2.191-1.088
			c2.109,0,3.158,1.672,3.158,3.609c0,1.938-1.035,3.57-3.133,3.57c-0.703,0-1.711-0.266-2.217-1.074h-0.025v0.914h-1.129V11.845z
			 M118.763,15.296c-1.514,0-2.098,1.3-2.098,2.587c0,1.355,0.611,2.602,2.164,2.602c1.539,0,2.059-1.312,2.059-2.654
			C120.888,16.544,120.224,15.296,118.763,15.296z"/>
		<path style="fill:#FFFFFF;" d="M122.878,11.845h1.127v9.476h-1.127V11.845z"/>
		<path style="fill:#FFFFFF;" d="M131.278,19.145c-0.305,1.514-1.392,2.336-2.934,2.336c-2.189,0-3.225-1.514-3.291-3.609
			c0-2.058,1.354-3.57,3.225-3.57c2.43,0,3.172,2.269,3.105,3.927h-5.137c-0.039,1.195,0.639,2.256,2.139,2.256
			c0.928,0,1.578-0.451,1.777-1.34H131.278z M130.19,17.233c-0.053-1.074-0.863-1.937-1.979-1.937c-1.182,0-1.885,0.889-1.965,1.937
			H130.19z"/>
	</g>
</g>
<g id="XMLID_141_">
</g>
<g id="XMLID_142_">
</g>
<g id="XMLID_143_">
</g>
<g id="XMLID_144_">
</g>
<g id="XMLID_145_">
</g>
<g id="XMLID_146_">
</g>
</svg>
